<svg width="200" height="200" viewBox="0 0 200 200" fill="none" xmlns="http://www.w3.org/2000/svg">
  <!-- Внешний круг -->
  <circle cx="100" cy="100" r="90" stroke="white" stroke-width="3"/>

  <!-- Внутренние соединения -->
  <line x1="100" y1="10" x2="100" y2="190" stroke="white" stroke-width="1"/>
  <line x1="10" y1="100" x2="190" y2="100" stroke="white" stroke-width="1"/>
  <line x1="30" y1="30" x2="170" y2="170" stroke="white" stroke-width="1"/>
  <line x1="170" y1="30" x2="30" y2="170" stroke="white" stroke-width="1"/>

  <!-- Центральный круг -->
  <circle cx="100" cy="100" r="10" fill="white"/>

  <!-- Маленькие точки на концах линий -->
  <circle cx="100" cy="10" r="4" fill="white"/>
  <circle cx="100" cy="190" r="4" fill="white"/>
  <circle cx="10" cy="100" r="4" fill="white"/>
  <circle cx="190" cy="100" r="4" fill="white"/>
  <circle cx="30" cy="30" r="4" fill="white"/>
  <circle cx="170" cy="170" r="4" fill="white"/>
  <circle cx="170" cy="30" r="4" fill="white"/>
  <circle cx="30" cy="170" r="4" fill="white"/>

  <!-- Точки ближе к центру -->
  <circle cx="100" cy="60" r="3" fill="white"/>
  <circle cx="100" cy="140" r="3" fill="white"/>
  <circle cx="60" cy="100" r="3" fill="white"/>
  <circle cx="140" cy="100" r="3" fill="white"/>
</svg>